<svg width="27" height="27" viewBox="0 0 27 27" fill="none" xmlns="http://www.w3.org/2000/svg">
<path d="M13.3333 0C5.97333 0 0 5.97333 0 13.3333C0 20.6933 5.97333 26.6667 13.3333 26.6667C20.6933 26.6667 26.6667 20.6933 26.6667 13.3333C26.6667 5.97333 20.6933 0 13.3333 0ZM2.66667 13.3333C2.66667 7.44 7.44 2.66667 13.3333 2.66667C15.8 2.66667 18.0667 3.50667 19.8667 4.92L4.92 19.8667C3.50667 18.0667 2.66667 15.8 2.66667 13.3333ZM13.3333 24C10.8667 24 8.6 23.16 6.8 21.7467L21.7467 6.8C23.16 8.6 24 10.8667 24 13.3333C24 19.2267 19.2267 24 13.3333 24Z" fill="#0899BA"/>
</svg>
