<svg width="31" height="33" viewBox="0 0 31 33" fill="none" xmlns="http://www.w3.org/2000/svg">
<path d="M12.2378 3.43994C12.0056 3.44012 11.7828 3.53587 11.6186 3.70616C11.4543 3.87645 11.362 4.10737 11.3618 4.3482V21.6988C11.3616 21.9305 11.447 22.1535 11.6005 22.3218L21.0437 32.7145C21.164 32.8472 21.32 32.9394 21.4914 32.979C21.6629 33.0186 21.8418 33.0038 22.0051 32.9365C22.1683 32.8692 22.3082 32.7526 22.4067 32.6018C22.5051 32.451 22.5575 32.2729 22.5571 32.0908L22.5499 10.7626C22.5502 10.644 22.528 10.5265 22.4844 10.4169C22.4409 10.3072 22.377 10.2075 22.2963 10.1234L15.5274 3.43994H12.2378Z" fill="url(#paint0_linear_7489_35974)"/>
<path d="M22.2826 10.0454L12.2632 0.247462C12.202 0.188459 12.1333 0.138534 12.059 0.0991194C11.9359 0.0339621 11.7997 -7.67916e-06 11.6616 1.30211e-09H0.876033C0.643635 0.000178745 0.420815 0.0960209 0.256545 0.266459C0.0922757 0.436897 -6.39474e-08 0.667985 0 0.908932V10.6975C0.00017198 10.9384 0.0925035 11.1693 0.256736 11.3397C0.420968 11.5101 0.643688 11.606 0.876033 11.6064L21.6804 11.6152C21.8175 11.6153 21.9527 11.582 22.0751 11.5181C22.1976 11.4542 22.3039 11.3614 22.3855 11.2472C22.467 11.1329 22.5217 11.0005 22.5449 10.8604C22.5682 10.7203 22.5594 10.5765 22.5193 10.4406C22.4745 10.2899 22.393 10.1539 22.2826 10.0454" fill="#337EAD"/>
<path d="M17.7003 1.57004L27.7289 11.368C27.8915 11.5272 28.1068 11.6157 28.3304 11.6155H30.1222C30.2373 11.6156 30.3513 11.5921 30.4576 11.5465C30.564 11.5009 30.6606 11.434 30.742 11.3497C30.8235 11.2653 30.888 11.1652 30.9321 11.055C30.9762 10.9447 30.9989 10.8266 30.9989 10.7072V0.918007C30.999 0.798626 30.9765 0.680384 30.9325 0.570065C30.8885 0.459746 30.8239 0.359521 30.7424 0.275137C30.661 0.190753 30.5643 0.123872 30.4578 0.0783303C30.3514 0.0327888 30.2373 0.00948347 30.1222 0.00974988L18.3032 0.000983889C18.1275 0.000251868 17.9556 0.0543908 17.8099 0.156356C17.6642 0.258321 17.5515 0.403389 17.4865 0.572678C17.4214 0.741968 17.407 0.927636 17.4452 1.10552C17.4833 1.28341 17.5722 1.44527 17.7003 1.57004" fill="#9AC0D8"/>
<defs>
<linearGradient id="paint0_linear_7489_35974" x1="16.9581" y1="32.9997" x2="16.9581" y2="3.43994" gradientUnits="userSpaceOnUse">
<stop stop-color="#9AC0D8"/>
<stop offset="0.2" stop-color="#96BED6"/>
<stop offset="0.4" stop-color="#8AB6D1"/>
<stop offset="0.59" stop-color="#77A9C9"/>
<stop offset="0.78" stop-color="#5B98BE"/>
<stop offset="0.98" stop-color="#3881AF"/>
<stop offset="1" stop-color="#337EAD"/>
</linearGradient>
</defs>
</svg>
