<svg width="1460" height="84" viewBox="0 0 1460 84" fill="none" xmlns="http://www.w3.org/2000/svg">
<g filter="url(#filter0_d_7504_35961)">
<rect x="10" y="8" width="1440" height="64" fill="white"/>
</g>
<g opacity="0.5">
<path opacity="0.5" d="M1270 64C1281.05 64 1290 55.0457 1290 44C1290 32.9543 1281.05 24 1270 24C1258.95 24 1250 32.9543 1250 44C1250 55.0457 1258.95 64 1270 64Z" fill="url(#paint0_linear_7504_35961)"/>
</g>
<path d="M1270.04 63.4504C1280.85 63.4504 1289.62 54.6849 1289.62 43.8722C1289.62 33.0594 1280.85 24.2939 1270.04 24.2939C1259.23 24.2939 1250.46 33.0594 1250.46 43.8722C1250.46 54.6849 1259.23 63.4504 1270.04 63.4504Z" fill="#58698B" fill-opacity="0.02"/>
<path d="M1270.06 63.5276C1273.88 63.5338 1277.63 62.4137 1280.82 60.307C1280.1 56.3643 1277.35 56.1396 1277.35 56.1396H1262.21C1262.21 56.1396 1259.62 56.3523 1258.81 59.9792C1262.1 62.295 1266.03 63.5346 1270.06 63.5276V63.5276Z" fill="#0899BA"/>
<path d="M1269.85 52.9095C1275.07 52.9095 1279.3 48.6786 1279.3 43.4596C1279.3 38.2406 1275.07 34.0098 1269.85 34.0098C1264.63 34.0098 1260.4 38.2406 1260.4 43.4596C1260.4 48.6786 1264.63 52.9095 1269.85 52.9095Z" fill="#16679A"/>
<path opacity="0.1" d="M1266.8 51.3306H1272.85V56.1747C1272.85 56.9774 1272.54 57.7473 1271.97 58.3151C1271.4 58.8828 1270.63 59.2019 1269.83 59.2022V59.2022C1269.03 59.2022 1268.25 58.8832 1267.69 58.3155C1267.12 57.7477 1266.8 56.9776 1266.8 56.1747V51.3306H1266.8Z" fill="black"/>
<path d="M1266.99 51.106H1272.66C1272.72 51.106 1272.76 51.1262 1272.8 51.1622C1272.84 51.1982 1272.86 51.247 1272.86 51.2979V55.9501C1272.86 56.3478 1272.78 56.7416 1272.63 57.1091C1272.47 57.4766 1272.25 57.8104 1271.97 58.0916C1271.69 58.3728 1271.35 58.5959 1270.99 58.748C1270.62 58.9001 1270.23 58.9783 1269.83 58.9782V58.9782C1269.03 58.9782 1268.26 58.6592 1267.69 58.0914C1267.12 57.5237 1266.8 56.7536 1266.8 55.9507V51.2979C1266.8 51.2472 1266.82 51.1986 1266.86 51.1626C1266.89 51.1266 1266.94 51.1063 1266.99 51.106V51.106Z" fill="#FDB797"/>
<path opacity="0.1" d="M1266.81 53.617C1268.76 54.3461 1270.91 54.352 1272.87 53.6337V52.8887H1266.81V53.617Z" fill="black"/>
<path d="M1269.85 54.0222C1274.64 54.0222 1278.53 50.1365 1278.53 45.3431C1278.53 40.5498 1274.64 36.6641 1269.85 36.6641C1265.06 36.6641 1261.17 40.5498 1261.17 45.3431C1261.17 50.1365 1265.06 54.0222 1269.85 54.0222Z" fill="#FDB797"/>
<path d="M1261.17 46.8494C1261.61 46.8494 1261.97 46.1715 1261.97 45.3353C1261.97 44.4991 1261.61 43.8213 1261.17 43.8213C1260.72 43.8213 1260.36 44.4991 1260.36 45.3353C1260.36 46.1715 1260.72 46.8494 1261.17 46.8494Z" fill="#FDB797"/>
<path d="M1278.53 46.8494C1278.97 46.8494 1279.33 46.1715 1279.33 45.3353C1279.33 44.4991 1278.97 43.8213 1278.53 43.8213C1278.08 43.8213 1277.72 44.4991 1277.72 45.3353C1277.72 46.1715 1278.08 46.8494 1278.53 46.8494Z" fill="#FDB797"/>
<path d="M1303.6 39.2H1307.59C1308.62 39.2 1309.54 39.41 1310.33 39.83C1311.12 40.2407 1311.74 40.8193 1312.18 41.566C1312.62 42.3033 1312.84 43.148 1312.84 44.1C1312.84 45.052 1312.62 45.9013 1312.18 46.648C1311.74 47.3853 1311.12 47.964 1310.33 48.384C1309.54 48.7947 1308.62 49 1307.59 49H1303.6V39.2ZM1307.53 48.104C1308.39 48.104 1309.14 47.936 1309.78 47.6C1310.43 47.2547 1310.93 46.7833 1311.28 46.186C1311.64 45.5793 1311.81 44.884 1311.81 44.1C1311.81 43.316 1311.64 42.6253 1311.28 42.028C1310.93 41.4213 1310.43 40.95 1309.78 40.614C1309.14 40.2687 1308.39 40.096 1307.53 40.096H1304.63V48.104H1307.53ZM1315.9 43.078C1316.14 42.5833 1316.48 42.21 1316.94 41.958C1317.41 41.706 1317.98 41.58 1318.66 41.58V42.546L1318.42 42.532C1317.65 42.532 1317.04 42.77 1316.6 43.246C1316.17 43.722 1315.95 44.3893 1315.95 45.248V49H1314.95V41.636H1315.9V43.078ZM1320.53 49.07C1320.33 49.07 1320.15 48.9953 1320 48.846C1319.86 48.6967 1319.79 48.5147 1319.79 48.3C1319.79 48.0853 1319.86 47.908 1320 47.768C1320.15 47.6187 1320.33 47.544 1320.53 47.544C1320.74 47.544 1320.92 47.6187 1321.06 47.768C1321.21 47.908 1321.29 48.0853 1321.29 48.3C1321.29 48.5147 1321.21 48.6967 1321.06 48.846C1320.92 48.9953 1320.74 49.07 1320.53 49.07ZM1329.18 40.096H1325.74V39.2H1333.66V40.096H1330.22V49H1329.18V40.096ZM1340.75 45.626H1334.59C1334.65 46.3913 1334.94 47.012 1335.47 47.488C1336.01 47.9547 1336.68 48.188 1337.49 48.188C1337.95 48.188 1338.37 48.1087 1338.75 47.95C1339.13 47.782 1339.46 47.5393 1339.74 47.222L1340.3 47.866C1339.98 48.258 1339.57 48.5567 1339.07 48.762C1338.59 48.9673 1338.05 49.07 1337.46 49.07C1336.71 49.07 1336.03 48.9113 1335.45 48.594C1334.87 48.2673 1334.41 47.8193 1334.09 47.25C1333.76 46.6807 1333.6 46.0367 1333.6 45.318C1333.6 44.5993 1333.75 43.9553 1334.06 43.386C1334.38 42.8167 1334.81 42.3733 1335.35 42.056C1335.9 41.7387 1336.51 41.58 1337.2 41.58C1337.88 41.58 1338.49 41.7387 1339.03 42.056C1339.57 42.3733 1340 42.8167 1340.3 43.386C1340.61 43.946 1340.77 44.59 1340.77 45.318L1340.75 45.626ZM1337.2 42.434C1336.49 42.434 1335.89 42.6627 1335.4 43.12C1334.93 43.568 1334.66 44.156 1334.59 44.884H1339.81C1339.75 44.156 1339.47 43.568 1338.99 43.12C1338.51 42.6627 1337.91 42.434 1337.2 42.434ZM1338.2 38.752H1339.53L1337.27 40.488H1336.29L1338.2 38.752ZM1343.74 43.078C1343.97 42.5833 1344.32 42.21 1344.78 41.958C1345.24 41.706 1345.82 41.58 1346.5 41.58V42.546L1346.26 42.532C1345.49 42.532 1344.88 42.77 1344.44 43.246C1344 43.722 1343.78 44.3893 1343.78 45.248V49H1342.79V41.636H1343.74V43.078ZM1351.28 49.07C1350.55 49.07 1349.9 48.9113 1349.32 48.594C1348.75 48.2767 1348.3 47.8333 1347.98 47.264C1347.65 46.6853 1347.49 46.0367 1347.49 45.318C1347.49 44.5993 1347.65 43.9553 1347.98 43.386C1348.3 42.8167 1348.75 42.3733 1349.32 42.056C1349.9 41.7387 1350.55 41.58 1351.28 41.58C1351.92 41.58 1352.48 41.706 1352.98 41.958C1353.48 42.2007 1353.88 42.56 1354.17 43.036L1353.42 43.54C1353.18 43.176 1352.87 42.9053 1352.5 42.728C1352.13 42.5413 1351.72 42.448 1351.28 42.448C1350.75 42.448 1350.27 42.5693 1349.84 42.812C1349.42 43.0453 1349.09 43.3813 1348.85 43.82C1348.61 44.2587 1348.5 44.758 1348.5 45.318C1348.5 45.8873 1348.61 46.3913 1348.85 46.83C1349.09 47.2593 1349.42 47.5953 1349.84 47.838C1350.27 48.0713 1350.75 48.188 1351.28 48.188C1351.72 48.188 1352.13 48.0993 1352.5 47.922C1352.87 47.7447 1353.18 47.474 1353.42 47.11L1354.17 47.614C1353.88 48.09 1353.48 48.454 1352.98 48.706C1352.47 48.9487 1351.91 49.07 1351.28 49.07ZM1356.12 41.636H1357.11V49H1356.12V41.636ZM1356.62 40.026C1356.42 40.026 1356.24 39.956 1356.1 39.816C1355.96 39.676 1355.89 39.508 1355.89 39.312C1355.89 39.1253 1355.96 38.962 1356.1 38.822C1356.24 38.682 1356.42 38.612 1356.62 38.612C1356.83 38.612 1357 38.682 1357.14 38.822C1357.28 38.9527 1357.35 39.1113 1357.35 39.298C1357.35 39.5033 1357.28 39.676 1357.14 39.816C1357 39.956 1356.83 40.026 1356.62 40.026ZM1362.89 49.07C1362.18 49.07 1361.54 48.9113 1360.97 48.594C1360.4 48.2673 1359.95 47.8193 1359.63 47.25C1359.3 46.6807 1359.14 46.0367 1359.14 45.318C1359.14 44.5993 1359.3 43.9553 1359.63 43.386C1359.95 42.8167 1360.4 42.3733 1360.97 42.056C1361.54 41.7387 1362.18 41.58 1362.89 41.58C1363.6 41.58 1364.24 41.7387 1364.81 42.056C1365.38 42.3733 1365.82 42.8167 1366.14 43.386C1366.46 43.9553 1366.63 44.5993 1366.63 45.318C1366.63 46.0367 1366.46 46.6807 1366.14 47.25C1365.82 47.8193 1365.38 48.2673 1364.81 48.594C1364.24 48.9113 1363.6 49.07 1362.89 49.07ZM1362.89 48.188C1363.41 48.188 1363.88 48.0713 1364.29 47.838C1364.71 47.5953 1365.03 47.2547 1365.27 46.816C1365.5 46.3773 1365.62 45.878 1365.62 45.318C1365.62 44.758 1365.5 44.2587 1365.27 43.82C1365.03 43.3813 1364.71 43.0453 1364.29 42.812C1363.88 42.5693 1363.41 42.448 1362.89 42.448C1362.37 42.448 1361.89 42.5693 1361.47 42.812C1361.06 43.0453 1360.74 43.3813 1360.49 43.82C1360.26 44.2587 1360.14 44.758 1360.14 45.318C1360.14 45.878 1360.26 46.3773 1360.49 46.816C1360.74 47.2547 1361.06 47.5953 1361.47 47.838C1361.89 48.0713 1362.37 48.188 1362.89 48.188Z" fill="#337EAD"/>
<path d="M1382.19 42.2925L1378.31 46.1725L1374.43 42.2925C1374.04 41.9025 1373.41 41.9025 1373.02 42.2925C1372.63 42.6825 1372.63 43.3125 1373.02 43.7025L1377.61 48.2925C1378 48.6825 1378.63 48.6825 1379.02 48.2925L1383.61 43.7025C1384 43.3125 1384 42.6825 1383.61 42.2925C1383.22 41.9125 1382.58 41.9025 1382.19 42.2925V42.2925Z" fill="#337EAD"/>
<path d="M42 44.6328H58C58.55 44.6328 59 44.2716 59 43.8301C59 43.3886 58.55 43.0273 58 43.0273H42C41.45 43.0273 41 43.3886 41 43.8301C41 44.2716 41.45 44.6328 42 44.6328ZM42 40.6191H58C58.55 40.6191 59 40.2579 59 39.8164C59 39.3749 58.55 39.0137 58 39.0137H42C41.45 39.0137 41 39.3749 41 39.8164C41 40.2579 41.45 40.6191 42 40.6191ZM41 35.8027C41 36.2442 41.45 36.6055 42 36.6055H58C58.55 36.6055 59 36.2442 59 35.8027C59 35.3612 58.55 35 58 35H42C41.45 35 41 35.3612 41 35.8027Z" fill="white"/>
<g clip-path="url(#clip0_7504_35961)">
<path d="M126.238 27.4399C126.006 27.4401 125.783 27.5359 125.619 27.7062C125.454 27.8765 125.362 28.1074 125.362 28.3482V45.6988C125.362 45.9305 125.447 46.1535 125.6 46.3218L135.044 56.7145C135.164 56.8472 135.32 56.9394 135.491 56.979C135.663 57.0186 135.842 57.0038 136.005 56.9365C136.168 56.8692 136.308 56.7526 136.407 56.6018C136.505 56.451 136.558 56.2729 136.557 56.0908L136.55 34.7626C136.55 34.644 136.528 34.5265 136.484 34.4169C136.441 34.3072 136.377 34.2075 136.296 34.1234L129.527 27.4399H126.238Z" fill="url(#paint1_linear_7504_35961)"/>
<path d="M136.283 34.0454L126.263 24.2475C126.202 24.1885 126.133 24.1385 126.059 24.0991C125.936 24.034 125.8 24 125.662 24H114.876C114.644 24.0002 114.421 24.096 114.257 24.2665C114.092 24.4369 114 24.668 114 24.9089V34.6975C114 34.9384 114.093 35.1693 114.257 35.3397C114.421 35.5101 114.644 35.606 114.876 35.6064L135.68 35.6152C135.817 35.6153 135.953 35.582 136.075 35.5181C136.198 35.4542 136.304 35.3614 136.385 35.2472C136.467 35.1329 136.522 35.0005 136.545 34.8604C136.568 34.7203 136.559 34.5765 136.519 34.4406C136.475 34.2899 136.393 34.1539 136.283 34.0454" fill="#337EAD"/>
<path d="M131.7 25.57L141.729 35.368C141.892 35.5272 142.107 35.6157 142.33 35.6155H144.122C144.237 35.6156 144.351 35.5921 144.458 35.5465C144.564 35.5009 144.661 35.434 144.742 35.3497C144.823 35.2653 144.888 35.1652 144.932 35.055C144.976 34.9447 144.999 34.8266 144.999 34.7072V24.918C144.999 24.7986 144.976 24.6804 144.932 24.5701C144.888 24.4597 144.824 24.3595 144.742 24.2751C144.661 24.1908 144.564 24.1239 144.458 24.0783C144.351 24.0328 144.237 24.0095 144.122 24.0097L132.303 24.001C132.127 24.0003 131.956 24.0544 131.81 24.1564C131.664 24.2583 131.552 24.4034 131.486 24.5727C131.421 24.742 131.407 24.9276 131.445 25.1055C131.483 25.2834 131.572 25.4453 131.7 25.57" fill="#9AC0D8"/>
</g>
<path d="M56.3938 35.0628C56.7356 34.6947 56.7356 34.1253 56.3938 33.7572V33.7572C56.0142 33.3484 55.3672 33.3484 54.9876 33.7572L50.5 38.59L46.0124 33.7572C45.6328 33.3484 44.9858 33.3484 44.6062 33.7572V33.7572C44.2644 34.1253 44.2644 34.6947 44.6062 35.0628L49.1907 40L44.6062 44.9372C44.2644 45.3053 44.2644 45.8747 44.6062 46.2428V46.2428C44.9858 46.6516 45.6328 46.6516 46.0124 46.2428L50.5 41.41L54.9876 46.2428C55.3672 46.6516 56.0142 46.6516 56.3938 46.2428V46.2428C56.7356 45.8747 56.7356 45.3053 56.3938 44.9372L51.8093 40L56.3938 35.0628Z" fill="#337EAD"/>
<defs>
<filter id="filter0_d_7504_35961" x="0" y="0" width="1460" height="84" filterUnits="userSpaceOnUse" color-interpolation-filters="sRGB">
<feFlood flood-opacity="0" result="BackgroundImageFix"/>
<feColorMatrix in="SourceAlpha" type="matrix" values="0 0 0 0 0 0 0 0 0 0 0 0 0 0 0 0 0 0 127 0" result="hardAlpha"/>
<feOffset dy="2"/>
<feGaussianBlur stdDeviation="5"/>
<feColorMatrix type="matrix" values="0 0 0 0 0.523155 0 0 0 0 0.615276 0 0 0 0 0.693925 0 0 0 0.1 0"/>
<feBlend mode="normal" in2="BackgroundImageFix" result="effect1_dropShadow_7504_35961"/>
<feBlend mode="normal" in="SourceGraphic" in2="effect1_dropShadow_7504_35961" result="shape"/>
</filter>
<linearGradient id="paint0_linear_7504_35961" x1="1270" y1="64" x2="1270" y2="24" gradientUnits="userSpaceOnUse">
<stop stop-color="#808080" stop-opacity="0.25"/>
<stop offset="0.54" stop-color="#808080" stop-opacity="0.12"/>
<stop offset="1" stop-color="#808080" stop-opacity="0.1"/>
</linearGradient>
<linearGradient id="paint1_linear_7504_35961" x1="130.958" y1="56.9997" x2="130.958" y2="27.4399" gradientUnits="userSpaceOnUse">
<stop stop-color="#9AC0D8"/>
<stop offset="0.2" stop-color="#96BED6"/>
<stop offset="0.4" stop-color="#8AB6D1"/>
<stop offset="0.59" stop-color="#77A9C9"/>
<stop offset="0.78" stop-color="#5B98BE"/>
<stop offset="0.98" stop-color="#3881AF"/>
<stop offset="1" stop-color="#337EAD"/>
</linearGradient>
<clipPath id="clip0_7504_35961">
<rect width="31" height="33" fill="white" transform="translate(114 24)"/>
</clipPath>
</defs>
</svg>
